<svg xmlns="http://www.w3.org/2000/svg" xmlns:xlink="http://www.w3.org/1999/xlink" xml:space="preserve" style="shape-rendering:geometricPrecision;text-rendering:geometricPrecision;image-rendering:optimizeQuality;" viewBox="0 0 6827 8533.75" x="0px" y="0px" fill-rule="evenodd" clip-rule="evenodd"><defs><style type="text/css">
   
    .fil1 {fill:none}
    .fil0 {fill:white}
   
  </style></defs><g><g><path class="fil0" d="M3371 1676l102 1024 -252 0 -105 -1055c-4,-42 8,-83 40,-112l31 -28 0 0 688 -619c51,-46 131,-42 177,9 46,51 42,131 -9,177l-672 604z"/><polygon class="fil0" points="4516,3627 2310,3627 2321,3707 2487,5002 4339,5002 4496,3789 "/><polygon class="fil0" points="4318,5169 2509,5169 2613,5973 4214,5973 "/><path class="fil0" d="M2140 2865l2548 0 65 0 0 -180 -2678 0 0 180 64 0c0,0 1,0 1,0z"/><polygon class="fil0" points="4593,3032 2234,3032 2289,3460 4538,3460 "/></g></g><rect class="fil1" width="6827" height="6827"/><text x="0" y="6842" fill="#000000" font-size="5px" font-weight="bold" font-family="'Helvetica Neue', Helvetica, Arial-Unicode, Arial, Sans-serif">Created by IYIKON</text><text x="0" y="6847" fill="#000000" font-size="5px" font-weight="bold" font-family="'Helvetica Neue', Helvetica, Arial-Unicode, Arial, Sans-serif">from the Noun Project</text></svg>