<svg xmlns="http://www.w3.org/2000/svg" xmlns:xlink="http://www.w3.org/1999/xlink" xml:space="preserve" style="shape-rendering:geometricPrecision;text-rendering:geometricPrecision;image-rendering:optimizeQuality;" viewBox="0 0 6827 8533.75" x="0px" y="0px" fill-rule="evenodd" clip-rule="evenodd"><defs><style type="text/css">
   
    .fil2 {fill:none}
    .fil1 {fill:white}
    .fil0 {fill:white;fill-rule:nonzero}
   
  </style></defs><g><g><path class="fil0" d="M4605 1579c1,1 386,345 -66,701 -240,189 38,297 38,297l-68 170c-2,-1 -576,-225 -84,-612 280,-221 57,-420 56,-421l124 -135z"/><path class="fil0" d="M4147 1579c1,1 386,345 -66,701 -240,189 38,297 38,297l-68 170c-2,-1 -576,-225 -84,-612 280,-221 57,-420 56,-421l124 -135z"/><path class="fil0" d="M3689 1579c1,1 386,345 -66,701 -240,189 38,297 38,297l-68 170c-2,-1 -576,-225 -84,-612 280,-221 57,-420 56,-421l124 -135z"/><path class="fil1" d="M1824 2846c71,-116 113,-262 113,-420 0,-194 -63,-368 -165,-493 -98,-120 -231,-194 -377,-194 -146,0 -279,74 -377,194 -102,125 -165,300 -165,493 0,158 42,304 113,420 71,116 170,202 283,242l62 22 0 65 0 2073 168 0 0 -2073 0 -65 61 -22c114,-40 213,-127 283,-242z"/><path class="fil1" d="M2734 3123c194,-22 391,-36 586,-45 238,-12 477,-17 715,-17 238,0 477,5 715,17 195,9 392,23 586,45 85,10 171,22 255,39 66,13 132,30 195,53 74,27 188,79 188,173 0,93 -114,146 -188,173 -63,23 -130,39 -195,53 -84,17 -170,29 -255,39 -194,22 -391,36 -586,45 -238,12 -477,17 -715,17 -238,0 -477,-5 -715,-17 -195,-9 -392,-23 -586,-45 -85,-10 -171,-22 -255,-39 -66,-13 -132,-30 -195,-53 -74,-27 -188,-79 -188,-173 0,-93 114,-146 188,-173 63,-23 130,-39 195,-53 84,-17 169,-29 255,-39zm-222 264c83,11 166,21 249,30 190,22 381,35 571,44 234,11 469,16 703,16 234,0 469,-5 703,-16 191,-9 382,-22 571,-44 83,-9 166,-19 249,-30 -83,-11 -166,-21 -249,-30 -190,-22 -381,-35 -571,-44 -234,-11 -469,-16 -703,-16 -234,0 -469,5 -703,16 -191,9 -382,22 -571,44 -83,9 -166,19 -249,30z"/><path class="fil0" d="M2148 3589c51,351 351,1019 1881,1073l2 0 0 0 0 0 1 0 1 0 1 0 1 0 0 0 0 0 2 0c1547,-54 1836,-736 1883,-1084 -37,24 -79,42 -117,56 -67,24 -137,42 -207,56 -86,17 -174,30 -261,40 -196,22 -394,36 -591,46 -239,12 -479,17 -719,17 -240,0 -479,-5 -719,-17 -197,-10 -395,-23 -591,-46 -88,-10 -175,-23 -261,-40 -70,-14 -140,-31 -207,-56 -32,-12 -67,-26 -99,-45z"/><path class="fil0" d="M3238 4650c12,118 35,253 39,258 284,303 1529,244 1537,-55l16 -209c-221,56 -486,94 -805,105l-2 0 0 0 0 0 -1 0 -1 0 -1 0 -1 0 0 0 0 0 -2 0c-307,-11 -564,-46 -779,-99z"/></g></g><rect class="fil2" width="6827" height="6827"/><text x="0" y="6842" fill="#000000" font-size="5px" font-weight="bold" font-family="'Helvetica Neue', Helvetica, Arial-Unicode, Arial, Sans-serif">Created by IYIKON</text><text x="0" y="6847" fill="#000000" font-size="5px" font-weight="bold" font-family="'Helvetica Neue', Helvetica, Arial-Unicode, Arial, Sans-serif">from the Noun Project</text></svg>